<svg xmlns="http://www.w3.org/2000/svg" viewBox="0 0 512 512">
	<defs>
		<radialGradient id="sky" cx="50%" cy="20%" r="90%">
			<stop offset="0%" stop-color="#16394a"/>
			<stop offset="100%" stop-color="#0b1d26"/>
		</radialGradient>
		<linearGradient id="aurora" x1="0" y1="0" x2="1" y2="0.3">
			<stop offset="0%" stop-color="#3ddc97" stop-opacity="0.9"/>
			<stop offset="55%" stop-color="#38c3d8" stop-opacity="0.7"/>
			<stop offset="100%" stop-color="#9b7bff" stop-opacity="0.8"/>
		</linearGradient>
		<linearGradient id="wood" x1="0" y1="0" x2="0" y2="1">
			<stop offset="0%" stop-color="#a06a33"/>
			<stop offset="100%" stop-color="#7a4d22"/>
		</linearGradient>
	</defs>
	<rect width="512" height="512" rx="112" fill="url(#sky)"/>
	<path d="M40 190 C 120 90, 200 150, 280 100 C 350 58, 430 90, 472 60 L 472 20 C 400 55, 340 30, 260 70 C 180 110, 110 60, 40 140 Z" fill="url(#aurora)" opacity="0.85"/>
	<path d="M40 230 C 130 150, 230 190, 320 150 C 390 120, 440 140, 472 120 L 472 90 C 420 115, 370 95, 300 130 C 210 175, 130 130, 40 200 Z" fill="url(#aurora)" opacity="0.4"/>
	<circle cx="420" cy="200" r="7" fill="#eaf4f4" opacity="0.9"/>
	<circle cx="90" cy="260" r="5" fill="#eaf4f4" opacity="0.7"/>
	<circle cx="360" cy="120" r="4" fill="#eaf4f4" opacity="0.6"/>
	<g transform="translate(106 220)">
		<path d="M0 90 a150 95 0 0 1 300 0 z" fill="url(#wood)" stroke="#4a2f12" stroke-width="14"/>
		<rect x="0" y="90" width="300" height="150" rx="24" fill="url(#wood)" stroke="#4a2f12" stroke-width="14"/>
		<rect x="126" y="74" width="48" height="76" rx="12" fill="#ffd166" stroke="#b8860b" stroke-width="8"/>
		<ellipse cx="150" cy="88" rx="118" ry="26" fill="#ffd166" opacity="0.5"/>
	</g>
</svg>
